<svg version="1.1" viewBox="0.0 0.0 192.0 192.0" fill="none" stroke="none" stroke-linecap="square" stroke-miterlimit="10" xmlns:xlink="http://www.w3.org/1999/xlink" xmlns="http://www.w3.org/2000/svg"><clipPath id="p2.0"><path d="m0 0l192.0 0l0 192.0l-192.0 0l0 -192.0z" clip-rule="nonzero"/></clipPath><g clip-path="url(#p2.0)"><path fill="#000000" fill-opacity="0.0" d="m0 0l192.0 0l0 192.0l-192.0 0z" fill-rule="evenodd"/><path fill="#000000" d="m120.241684 58.707684l0 0c-7.5485764 0 -13.667908 -6.1193275 -13.667908 -13.667904l-0.0027389526 0l0 0c0 7.5485764 -6.1193314 13.667904 -13.667908 13.667904l0 0l0 0c7.5485764 0 13.667908 6.1193275 13.667908 13.667904l0.0027389526 0l0 0c0 -7.5485764 6.1193314 -13.667904 13.667908 -13.667904z" fill-rule="evenodd"/><path fill="#000000" d="m169.49821 138.31145l0 0c-7.548584 0 -13.667908 -6.1193237 -13.667908 -13.6679l-0.002746582 0l0 0c0 7.5485764 -6.1193237 13.6679 -13.667908 13.6679l0 0l0 0c7.548584 0 13.667908 6.119339 13.667908 13.667908l0.002746582 0l0 0c0 -7.5485687 6.1193237 -13.667908 13.667908 -13.667908z" fill-rule="evenodd"/><path fill="#000000" d="m49.28439 78.655754l0 0c-7.5485764 0 -13.667908 -6.1193237 -13.667908 -13.6679l-0.0027389526 0l0 0c0 7.5485764 -6.1193295 13.6679 -13.667906 13.6679l0 0l0 0c7.5485764 0 13.667906 6.1193314 13.667906 13.667908l0.0027389526 0l0 0c0 -7.5485764 6.1193314 -13.667908 13.667908 -13.667908z" fill-rule="evenodd"/><path fill="#000000" d="m65.94035 137.52443l0 0c-7.5485764 0 -13.667908 -6.1193237 -13.667908 -13.667908l-0.0027389526 0l0 0c0 7.548584 -6.1193314 13.667908 -13.667904 13.667908l0 0l0 0c7.5485725 0 13.667904 6.1193237 13.667904 13.667908l0.0027389526 0l0 0c0 -7.548584 6.1193314 -13.667908 13.667908 -13.667908z" fill-rule="evenodd"/><path fill="#000000" d="m101.58699 129.59682l0 0c-4.6506195 0 -8.420685 -3.7700653 -8.420685 -8.420677l-0.0016937256 0l0 0c0 4.650612 -3.7700653 8.420677 -8.420685 8.420677l0 0l0 0c4.6506195 0 8.420685 3.7700806 8.420685 8.4207l0.0016937256 0l0 0c0 -4.6506195 3.7700653 -8.4207 8.420685 -8.4207z" fill-rule="evenodd"/></g></svg>